<?xml version="1.0" encoding="utf-8"?><svg viewBox="0 0 32 32" xmlns="http://www.w3.org/2000/svg" xmlns:xlink="http://www.w3.org/1999/xlink"><style>:root>svg{display:none}:root>svg:target{display:block}</style><svg viewBox="0 0 512 512" id="burger" xmlns="http://www.w3.org/2000/svg"><path d="M464.883 64.267H47.117C21.137 64.267 0 85.403 0 111.416c0 25.98 21.137 47.117 47.117 47.117h417.766c25.98 0 47.117-21.137 47.117-47.117 0-26.013-21.137-47.149-47.117-47.149zM464.883 208.867H47.117C21.137 208.867 0 230.003 0 256.016c0 25.98 21.137 47.117 47.117 47.117h417.766c25.98 0 47.117-21.137 47.117-47.117 0-26.013-21.137-47.149-47.117-47.149zM464.883 353.467H47.117C21.137 353.467 0 374.604 0 400.616c0 25.98 21.137 47.117 47.117 47.117h417.766c25.98 0 47.117-21.137 47.117-47.117 0-26.012-21.137-47.149-47.117-47.149z"/></svg><svg fill="currentColor" class="bbi bbi-people" viewBox="0 0 16 16" id="page10" xmlns="http://www.w3.org/2000/svg"><path d="M15 14s1 0 1-1-1-4-5-4-5 3-5 4 1 1 1 1h8zm-7.978-1A.261.261 0 017 12.996c.001-.264.167-1.03.76-1.72C8.312 10.629 9.282 10 11 10c1.717 0 2.687.63 3.24 1.276.593.69.758 1.457.76 1.72l-.008.002a.274.274 0 01-.014.002H7.022zM11 7a2 2 0 100-4 2 2 0 000 4zm3-2a3 3 0 11-6 0 3 3 0 016 0zM6.936 9.28a5.88 5.88 0 00-1.23-.247A7.35 7.35 0 005 9c-4 0-5 3-5 4 0 .667.333 1 1 1h4.216A2.238 2.238 0 015 13c0-1.01.377-2.042 1.09-2.904.243-.294.526-.569.846-.816zM4.92 10A5.493 5.493 0 004 13H1c0-.26.164-1.03.76-1.724.545-.636 1.492-1.256 3.16-1.275zM1.5 5.5a3 3 0 116 0 3 3 0 01-6 0zm3-2a2 2 0 100 4 2 2 0 000-4z"/></svg><svg fill="currentColor" class="cbi cbi-graph-down" viewBox="0 0 16 16" id="page11" xmlns="http://www.w3.org/2000/svg"><path fill-rule="evenodd" d="M0 0h1v15h15v1H0V0zm10 11.5a.5.5 0 00.5.5h4a.5.5 0 00.5-.5v-4a.5.5 0 00-1 0v2.6l-3.613-4.417a.5.5 0 00-.74-.037L7.06 8.233 3.404 3.206a.5.5 0 00-.808.588l4 5.5a.5.5 0 00.758.06l2.609-2.61L13.445 11H10.5a.5.5 0 00-.5.5z"/></svg><svg fill="currentColor" class="dbi dbi-credit-card-2-front" viewBox="0 0 16 16" id="page12" xmlns="http://www.w3.org/2000/svg"><path d="M14 3a1 1 0 011 1v8a1 1 0 01-1 1H2a1 1 0 01-1-1V4a1 1 0 011-1h12zM2 2a2 2 0 00-2 2v8a2 2 0 002 2h12a2 2 0 002-2V4a2 2 0 00-2-2H2z"/><path d="M2 5.5a.5.5 0 01.5-.5h2a.5.5 0 01.5.5v1a.5.5 0 01-.5.5h-2a.5.5 0 01-.5-.5v-1zm0 3a.5.5 0 01.5-.5h5a.5.5 0 010 1h-5a.5.5 0 01-.5-.5zm0 2a.5.5 0 01.5-.5h1a.5.5 0 010 1h-1a.5.5 0 01-.5-.5zm3 0a.5.5 0 01.5-.5h1a.5.5 0 010 1h-1a.5.5 0 01-.5-.5zm3 0a.5.5 0 01.5-.5h1a.5.5 0 010 1h-1a.5.5 0 01-.5-.5zm3 0a.5.5 0 01.5-.5h1a.5.5 0 010 1h-1a.5.5 0 01-.5-.5z"/></svg><svg fill="currentColor" class="ebi ebi-sliders" viewBox="0 0 16 16" id="page13" xmlns="http://www.w3.org/2000/svg"><path fill-rule="evenodd" d="M11.5 2a1.5 1.5 0 100 3 1.5 1.5 0 000-3zM9.05 3a2.5 2.5 0 014.9 0H16v1h-2.05a2.5 2.5 0 01-4.9 0H0V3h9.05zM4.5 7a1.5 1.5 0 100 3 1.5 1.5 0 000-3zM2.05 8a2.5 2.5 0 014.9 0H16v1H6.95a2.5 2.5 0 01-4.9 0H0V8h2.05zm9.45 4a1.5 1.5 0 100 3 1.5 1.5 0 000-3zm-2.45 1a2.5 2.5 0 014.9 0H16v1h-2.05a2.5 2.5 0 01-4.9 0H0v-1h9.05z"/></svg><svg fill="currentColor" class="fbi fbi-graph-up" viewBox="0 0 16 16" id="page14" xmlns="http://www.w3.org/2000/svg"><path fill-rule="evenodd" d="M0 0h1v15h15v1H0V0zm10 3.5a.5.5 0 01.5-.5h4a.5.5 0 01.5.5v4a.5.5 0 01-1 0V4.9l-3.613 4.417a.5.5 0 01-.74.037L7.06 6.767l-3.656 5.027a.5.5 0 01-.808-.588l4-5.5a.5.5 0 01.758-.06l2.609 2.61L13.445 4H10.5a.5.5 0 01-.5-.5z"/></svg><svg fill="currentColor" class="gbi gbi-calendar3" viewBox="0 0 16 16" id="page15" xmlns="http://www.w3.org/2000/svg"><path d="M14 0H2a2 2 0 00-2 2v12a2 2 0 002 2h12a2 2 0 002-2V2a2 2 0 00-2-2zM1 3.857C1 3.384 1.448 3 2 3h12c.552 0 1 .384 1 .857v10.286c0 .473-.448.857-1 .857H2c-.552 0-1-.384-1-.857V3.857z"/><path d="M6.5 7a1 1 0 100-2 1 1 0 000 2zm3 0a1 1 0 100-2 1 1 0 000 2zm3 0a1 1 0 100-2 1 1 0 000 2zm-9 3a1 1 0 100-2 1 1 0 000 2zm3 0a1 1 0 100-2 1 1 0 000 2zm3 0a1 1 0 100-2 1 1 0 000 2zm3 0a1 1 0 100-2 1 1 0 000 2zm-9 3a1 1 0 100-2 1 1 0 000 2zm3 0a1 1 0 100-2 1 1 0 000 2zm3 0a1 1 0 100-2 1 1 0 000 2z"/></svg><svg fill="currentColor" class="hbi hbi-bounding-box" viewBox="0 0 16 16" id="page2" xmlns="http://www.w3.org/2000/svg"><path d="M5 2V0H0v5h2v6H0v5h5v-2h6v2h5v-5h-2V5h2V0h-5v2H5zm6 1v2h2v6h-2v2H5v-2H3V5h2V3h6zm1-2h3v3h-3V1zm3 11v3h-3v-3h3zM4 15H1v-3h3v3zM1 4V1h3v3H1z"/></svg><svg fill="currentColor" class="ibi ibi-calendar-date" viewBox="0 0 16 16" id="page3" xmlns="http://www.w3.org/2000/svg"><path d="M6.445 11.688V6.354h-.633A12.6 12.6 0 004.5 7.16v.695c.375-.257.969-.62 1.258-.777h.012v4.61h.675zm1.188-1.305c.047.64.594 1.406 1.703 1.406 1.258 0 2-1.066 2-2.871 0-1.934-.781-2.668-1.953-2.668-.926 0-1.797.672-1.797 1.809 0 1.16.824 1.77 1.676 1.77.746 0 1.23-.376 1.383-.79h.027c-.004 1.316-.461 2.164-1.305 2.164-.664 0-1.008-.45-1.05-.82h-.684zm2.953-2.317c0 .696-.559 1.18-1.184 1.18-.601 0-1.144-.383-1.144-1.2 0-.823.582-1.21 1.168-1.21.633 0 1.16.398 1.16 1.23z"/><path d="M3.5 0a.5.5 0 01.5.5V1h8V.5a.5.5 0 011 0V1h1a2 2 0 012 2v11a2 2 0 01-2 2H2a2 2 0 01-2-2V3a2 2 0 012-2h1V.5a.5.5 0 01.5-.5zM1 4v10a1 1 0 001 1h12a1 1 0 001-1V4H1z"/></svg><svg fill="currentColor" class="jbi jbi-bar-chart-fill" viewBox="0 0 16 16" id="page4" xmlns="http://www.w3.org/2000/svg"><path d="M1 11a1 1 0 011-1h2a1 1 0 011 1v3a1 1 0 01-1 1H2a1 1 0 01-1-1v-3zm5-4a1 1 0 011-1h2a1 1 0 011 1v7a1 1 0 01-1 1H7a1 1 0 01-1-1V7zm5-5a1 1 0 011-1h2a1 1 0 011 1v12a1 1 0 01-1 1h-2a1 1 0 01-1-1V2z"/></svg><svg fill="currentColor" class="kbi kbi-bar-chart-steps" viewBox="0 0 16 16" id="page5" xmlns="http://www.w3.org/2000/svg"><path d="M.5 0a.5.5 0 01.5.5v15a.5.5 0 01-1 0V.5A.5.5 0 01.5 0zM2 1.5a.5.5 0 01.5-.5h4a.5.5 0 01.5.5v1a.5.5 0 01-.5.5h-4a.5.5 0 01-.5-.5v-1zm2 4a.5.5 0 01.5-.5h7a.5.5 0 01.5.5v1a.5.5 0 01-.5.5h-7a.5.5 0 01-.5-.5v-1zm2 4a.5.5 0 01.5-.5h6a.5.5 0 01.5.5v1a.5.5 0 01-.5.5h-6a.5.5 0 01-.5-.5v-1zm2 4a.5.5 0 01.5-.5h7a.5.5 0 01.5.5v1a.5.5 0 01-.5.5h-7a.5.5 0 01-.5-.5v-1z"/></svg><svg fill="currentColor" class="lbi lbi-calendar-day" viewBox="0 0 16 16" id="page6" xmlns="http://www.w3.org/2000/svg"><path d="M4.684 11.523v-2.3h2.261v-.61H4.684V6.801h2.464v-.61H4v5.332h.684zm3.296 0h.676V8.98c0-.554.227-1.007.953-1.007.125 0 .258.004.329.015v-.613a1.806 1.806 0 00-.254-.02c-.582 0-.891.32-1.012.567h-.02v-.504H7.98v4.105zm2.805-5.093c0 .238.192.425.43.425a.428.428 0 100-.855.426.426 0 00-.43.43zm.094 5.093h.672V7.418h-.672v4.105z"/><path d="M3.5 0a.5.5 0 01.5.5V1h8V.5a.5.5 0 011 0V1h1a2 2 0 012 2v11a2 2 0 01-2 2H2a2 2 0 01-2-2V3a2 2 0 012-2h1V.5a.5.5 0 01.5-.5zM1 4v10a1 1 0 001 1h12a1 1 0 001-1V4H1z"/></svg><svg fill="currentColor" class="mbi mbi-circle-half" viewBox="0 0 16 16" id="page7" xmlns="http://www.w3.org/2000/svg"><path d="M8 15A7 7 0 108 1v14zm0 1A8 8 0 118 0a8 8 0 010 16z"/></svg><svg fill="currentColor" class="nbi nbi-diagram-3" viewBox="0 0 16 16" id="page8" xmlns="http://www.w3.org/2000/svg"><path fill-rule="evenodd" d="M6 3.5A1.5 1.5 0 017.5 2h1A1.5 1.5 0 0110 3.5v1A1.5 1.5 0 018.5 6v1H14a.5.5 0 01.5.5v1a.5.5 0 01-1 0V8h-5v.5a.5.5 0 01-1 0V8h-5v.5a.5.5 0 01-1 0v-1A.5.5 0 012 7h5.5V6A1.5 1.5 0 016 4.5v-1zM8.5 5a.5.5 0 00.5-.5v-1a.5.5 0 00-.5-.5h-1a.5.5 0 00-.5.5v1a.5.5 0 00.5.5h1zM0 11.5A1.5 1.5 0 011.5 10h1A1.5 1.5 0 014 11.5v1A1.5 1.5 0 012.5 14h-1A1.5 1.5 0 010 12.5v-1zm1.5-.5a.5.5 0 00-.5.5v1a.5.5 0 00.5.5h1a.5.5 0 00.5-.5v-1a.5.5 0 00-.5-.5h-1zm4.5.5A1.5 1.5 0 017.5 10h1a1.5 1.5 0 011.5 1.5v1A1.5 1.5 0 018.5 14h-1A1.5 1.5 0 016 12.5v-1zm1.5-.5a.5.5 0 00-.5.5v1a.5.5 0 00.5.5h1a.5.5 0 00.5-.5v-1a.5.5 0 00-.5-.5h-1zm4.5.5a1.5 1.5 0 011.5-1.5h1a1.5 1.5 0 011.5 1.5v1a1.5 1.5 0 01-1.5 1.5h-1a1.5 1.5 0 01-1.5-1.5v-1zm1.5-.5a.5.5 0 00-.5.5v1a.5.5 0 00.5.5h1a.5.5 0 00.5-.5v-1a.5.5 0 00-.5-.5h-1z"/></svg><svg fill="currentColor" class="obi obi-bullseye" viewBox="0 0 16 16" id="page9" xmlns="http://www.w3.org/2000/svg"><path d="M8 15A7 7 0 118 1a7 7 0 010 14zm0 1A8 8 0 108 0a8 8 0 000 16z"/><path d="M8 13A5 5 0 118 3a5 5 0 010 10zm0 1A6 6 0 108 2a6 6 0 000 12z"/><path d="M8 11a3 3 0 110-6 3 3 0 010 6zm0 1a4 4 0 100-8 4 4 0 000 8z"/><path d="M9.5 8a1.5 1.5 0 11-3 0 1.5 1.5 0 013 0z"/></svg><svg fill="none" viewBox="0 0 16 16" id="plus" xmlns="http://www.w3.org/2000/svg"><path fill-rule="evenodd" clip-rule="evenodd" d="M15 7H9V1a1 1 0 10-2 0v6H1a1 1 0 100 2h6v6a1 1 0 102 0V9h6a1 1 0 100-2z" fill="#fff"/></svg></svg>